G04 #@! TF.GenerationSoftware,KiCad,Pcbnew,5.0.2+dfsg1-1~bpo9+1*
G04 #@! TF.CreationDate,2020-11-29T19:27:56+00:00*
G04 #@! TF.ProjectId,tiny_glowstick,74696e79-5f67-46c6-9f77-737469636b2e,rev?*
G04 #@! TF.SameCoordinates,Original*
G04 #@! TF.FileFunction,Copper,L2,Bot*
G04 #@! TF.FilePolarity,Positive*
%FSLAX46Y46*%
G04 Gerber Fmt 4.6, Leading zero omitted, Abs format (unit mm)*
G04 Created by KiCad (PCBNEW 5.0.2+dfsg1-1~bpo9+1) date Sun 29 Nov 2020 19:27:56 GMT*
%MOMM*%
%LPD*%
G01*
G04 APERTURE LIST*
G04 #@! TA.AperFunction,ComponentPad*
%ADD10C,1.600000*%
G04 #@! TD*
G04 #@! TA.AperFunction,ComponentPad*
%ADD11C,3.000000*%
G04 #@! TD*
G04 #@! TA.AperFunction,ComponentPad*
%ADD12C,1.900000*%
G04 #@! TD*
G04 #@! TA.AperFunction,ViaPad*
%ADD13C,0.800000*%
G04 #@! TD*
G04 #@! TA.AperFunction,Conductor*
%ADD14C,0.250000*%
G04 #@! TD*
G04 APERTURE END LIST*
D10*
G04 #@! TO.P,J1,1*
G04 #@! TO.N,Net-(D1-Pad1)*
X140462000Y-78600300D03*
G04 #@! TO.P,J1,2*
G04 #@! TO.N,Net-(J1-Pad2)*
X137998200Y-78600300D03*
G04 #@! TO.P,J1,3*
G04 #@! TO.N,Net-(J1-Pad3)*
X135763000Y-78600300D03*
G04 #@! TO.P,J1,4*
G04 #@! TO.N,Net-(D1-Pad3)*
X133299200Y-78600300D03*
D11*
X130860800Y-80393540D03*
X142875000Y-80398620D03*
G04 #@! TD*
D10*
G04 #@! TO.P,SW1,3*
G04 #@! TO.N,Net-(D1-Pad3)*
X142963900Y-70426580D03*
G04 #@! TO.P,SW1,4*
G04 #@! TO.N,Net-(SW1-Pad4)*
X142963900Y-73850500D03*
G04 #@! TO.P,SW1,2*
G04 #@! TO.N,Net-(SW1-Pad2)*
X142963900Y-68176140D03*
G04 #@! TO.P,SW1,1*
G04 #@! TO.N,Net-(SW1-Pad1)*
X142963900Y-65925700D03*
D12*
G04 #@! TO.P,SW1,5*
G04 #@! TO.N,N/C*
X142963900Y-63517780D03*
G04 #@! TO.P,SW1,6*
X142963900Y-76258420D03*
G04 #@! TD*
D13*
G04 #@! TO.N,Net-(D1-Pad3)*
X132880100Y-74625200D03*
X136491980Y-67025520D03*
G04 #@! TO.N,Net-(D1-Pad1)*
X136878060Y-69774900D03*
X136778667Y-64269287D03*
G04 #@! TD*
D14*
G04 #@! TO.N,Net-(D1-Pad3)*
X131854041Y-79400299D02*
X130860800Y-80393540D01*
X132499201Y-79400299D02*
X131854041Y-79400299D01*
X133299200Y-78600300D02*
X132499201Y-79400299D01*
X142869920Y-80393540D02*
X142875000Y-80398620D01*
X130860800Y-80393540D02*
X142869920Y-80393540D01*
X133299200Y-75044300D02*
X132880100Y-74625200D01*
X133299200Y-78600300D02*
X133299200Y-75044300D01*
X132880100Y-70637400D02*
X136491980Y-67025520D01*
X132880100Y-74625200D02*
X132880100Y-70637400D01*
G04 #@! TO.N,Net-(D1-Pad1)*
X137278059Y-64768679D02*
X136778667Y-64269287D01*
X137278059Y-69374901D02*
X137278059Y-64768679D01*
X136878060Y-69774900D02*
X137278059Y-69374901D01*
G04 #@! TD*
M02*
