G04 #@! TF.GenerationSoftware,KiCad,Pcbnew,5.0.2+dfsg1-1~bpo9+1*
G04 #@! TF.CreationDate,2020-11-29T19:27:56+00:00*
G04 #@! TF.ProjectId,tiny_glowstick,74696e79-5f67-46c6-9f77-737469636b2e,rev?*
G04 #@! TF.SameCoordinates,Original*
G04 #@! TF.FileFunction,Legend,Bot*
G04 #@! TF.FilePolarity,Positive*
%FSLAX46Y46*%
G04 Gerber Fmt 4.6, Leading zero omitted, Abs format (unit mm)*
G04 Created by KiCad (PCBNEW 5.0.2+dfsg1-1~bpo9+1) date Sun 29 Nov 2020 19:27:56 GMT*
%MOMM*%
%LPD*%
G01*
G04 APERTURE LIST*
%ADD10C,0.300000*%
G04 APERTURE END LIST*
D10*
X136173471Y-59994185D02*
X136173471Y-60851328D01*
X137673471Y-60422757D02*
X136173471Y-60422757D01*
X137673471Y-61351328D02*
X136673471Y-61351328D01*
X136173471Y-61351328D02*
X136244900Y-61279900D01*
X136316328Y-61351328D01*
X136244900Y-61422757D01*
X136173471Y-61351328D01*
X136316328Y-61351328D01*
X136673471Y-62065614D02*
X137673471Y-62065614D01*
X136816328Y-62065614D02*
X136744900Y-62137042D01*
X136673471Y-62279900D01*
X136673471Y-62494185D01*
X136744900Y-62637042D01*
X136887757Y-62708471D01*
X137673471Y-62708471D01*
X136673471Y-63279900D02*
X137673471Y-63637042D01*
X136673471Y-63994185D02*
X137673471Y-63637042D01*
X138030614Y-63494185D01*
X138102042Y-63422757D01*
X138173471Y-63279900D01*
X137816328Y-64208471D02*
X137816328Y-65351328D01*
X136673471Y-66351328D02*
X137887757Y-66351328D01*
X138030614Y-66279900D01*
X138102042Y-66208471D01*
X138173471Y-66065614D01*
X138173471Y-65851328D01*
X138102042Y-65708471D01*
X137602042Y-66351328D02*
X137673471Y-66208471D01*
X137673471Y-65922757D01*
X137602042Y-65779900D01*
X137530614Y-65708471D01*
X137387757Y-65637042D01*
X136959185Y-65637042D01*
X136816328Y-65708471D01*
X136744900Y-65779900D01*
X136673471Y-65922757D01*
X136673471Y-66208471D01*
X136744900Y-66351328D01*
X137673471Y-67279900D02*
X137602042Y-67137042D01*
X137459185Y-67065614D01*
X136173471Y-67065614D01*
X137673471Y-68065614D02*
X137602042Y-67922757D01*
X137530614Y-67851328D01*
X137387757Y-67779900D01*
X136959185Y-67779900D01*
X136816328Y-67851328D01*
X136744900Y-67922757D01*
X136673471Y-68065614D01*
X136673471Y-68279900D01*
X136744900Y-68422757D01*
X136816328Y-68494185D01*
X136959185Y-68565614D01*
X137387757Y-68565614D01*
X137530614Y-68494185D01*
X137602042Y-68422757D01*
X137673471Y-68279900D01*
X137673471Y-68065614D01*
X136673471Y-69065614D02*
X137673471Y-69351328D01*
X136959185Y-69637042D01*
X137673471Y-69922757D01*
X136673471Y-70208471D01*
X137602042Y-70708471D02*
X137673471Y-70851328D01*
X137673471Y-71137042D01*
X137602042Y-71279900D01*
X137459185Y-71351328D01*
X137387757Y-71351328D01*
X137244900Y-71279900D01*
X137173471Y-71137042D01*
X137173471Y-70922757D01*
X137102042Y-70779900D01*
X136959185Y-70708471D01*
X136887757Y-70708471D01*
X136744900Y-70779900D01*
X136673471Y-70922757D01*
X136673471Y-71137042D01*
X136744900Y-71279900D01*
X136673471Y-71779900D02*
X136673471Y-72351328D01*
X136173471Y-71994185D02*
X137459185Y-71994185D01*
X137602042Y-72065614D01*
X137673471Y-72208471D01*
X137673471Y-72351328D01*
X137673471Y-72851328D02*
X136673471Y-72851328D01*
X136173471Y-72851328D02*
X136244900Y-72779900D01*
X136316328Y-72851328D01*
X136244900Y-72922757D01*
X136173471Y-72851328D01*
X136316328Y-72851328D01*
X137602042Y-74208471D02*
X137673471Y-74065614D01*
X137673471Y-73779900D01*
X137602042Y-73637042D01*
X137530614Y-73565614D01*
X137387757Y-73494185D01*
X136959185Y-73494185D01*
X136816328Y-73565614D01*
X136744900Y-73637042D01*
X136673471Y-73779900D01*
X136673471Y-74065614D01*
X136744900Y-74208471D01*
X137673471Y-74851328D02*
X136173471Y-74851328D01*
X137102042Y-74994185D02*
X137673471Y-75422757D01*
X136673471Y-75422757D02*
X137244900Y-74851328D01*
X133052428Y-67126171D02*
X132981000Y-67197600D01*
X132909571Y-67340457D01*
X132909571Y-67697600D01*
X132981000Y-67840457D01*
X133052428Y-67911885D01*
X133195285Y-67983314D01*
X133338142Y-67983314D01*
X133552428Y-67911885D01*
X134409571Y-67054742D01*
X134409571Y-67983314D01*
X132909571Y-68911885D02*
X132909571Y-69054742D01*
X132981000Y-69197600D01*
X133052428Y-69269028D01*
X133195285Y-69340457D01*
X133481000Y-69411885D01*
X133838142Y-69411885D01*
X134123857Y-69340457D01*
X134266714Y-69269028D01*
X134338142Y-69197600D01*
X134409571Y-69054742D01*
X134409571Y-68911885D01*
X134338142Y-68769028D01*
X134266714Y-68697600D01*
X134123857Y-68626171D01*
X133838142Y-68554742D01*
X133481000Y-68554742D01*
X133195285Y-68626171D01*
X133052428Y-68697600D01*
X132981000Y-68769028D01*
X132909571Y-68911885D01*
X134409571Y-70840457D02*
X134409571Y-69983314D01*
X134409571Y-70411885D02*
X132909571Y-70411885D01*
X133123857Y-70269028D01*
X133266714Y-70126171D01*
X133338142Y-69983314D01*
X134409571Y-71554742D02*
X134409571Y-71840457D01*
X134338142Y-71983314D01*
X134266714Y-72054742D01*
X134052428Y-72197600D01*
X133766714Y-72269028D01*
X133195285Y-72269028D01*
X133052428Y-72197600D01*
X132981000Y-72126171D01*
X132909571Y-71983314D01*
X132909571Y-71697600D01*
X132981000Y-71554742D01*
X133052428Y-71483314D01*
X133195285Y-71411885D01*
X133552428Y-71411885D01*
X133695285Y-71483314D01*
X133766714Y-71554742D01*
X133838142Y-71697600D01*
X133838142Y-71983314D01*
X133766714Y-72126171D01*
X133695285Y-72197600D01*
X133552428Y-72269028D01*
X130512357Y-63216685D02*
X130512357Y-62716685D01*
X131298071Y-62716685D02*
X129798071Y-62716685D01*
X129798071Y-63430971D01*
X131298071Y-64645257D02*
X130512357Y-64645257D01*
X130369500Y-64573828D01*
X130298071Y-64430971D01*
X130298071Y-64145257D01*
X130369500Y-64002400D01*
X131226642Y-64645257D02*
X131298071Y-64502400D01*
X131298071Y-64145257D01*
X131226642Y-64002400D01*
X131083785Y-63930971D01*
X130940928Y-63930971D01*
X130798071Y-64002400D01*
X130726642Y-64145257D01*
X130726642Y-64502400D01*
X130655214Y-64645257D01*
X131226642Y-66002400D02*
X131298071Y-65859542D01*
X131298071Y-65573828D01*
X131226642Y-65430971D01*
X131155214Y-65359542D01*
X131012357Y-65288114D01*
X130583785Y-65288114D01*
X130440928Y-65359542D01*
X130369500Y-65430971D01*
X130298071Y-65573828D01*
X130298071Y-65859542D01*
X130369500Y-66002400D01*
X131226642Y-67216685D02*
X131298071Y-67073828D01*
X131298071Y-66788114D01*
X131226642Y-66645257D01*
X131083785Y-66573828D01*
X130512357Y-66573828D01*
X130369500Y-66645257D01*
X130298071Y-66788114D01*
X130298071Y-67073828D01*
X130369500Y-67216685D01*
X130512357Y-67288114D01*
X130655214Y-67288114D01*
X130798071Y-66573828D01*
X131298071Y-68145257D02*
X131226642Y-68002400D01*
X131083785Y-67930971D01*
X129798071Y-67930971D01*
X131226642Y-69288114D02*
X131298071Y-69145257D01*
X131298071Y-68859542D01*
X131226642Y-68716685D01*
X131083785Y-68645257D01*
X130512357Y-68645257D01*
X130369500Y-68716685D01*
X130298071Y-68859542D01*
X130298071Y-69145257D01*
X130369500Y-69288114D01*
X130512357Y-69359542D01*
X130655214Y-69359542D01*
X130798071Y-68645257D01*
X131226642Y-69930971D02*
X131298071Y-70073828D01*
X131298071Y-70359542D01*
X131226642Y-70502400D01*
X131083785Y-70573828D01*
X131012357Y-70573828D01*
X130869500Y-70502400D01*
X130798071Y-70359542D01*
X130798071Y-70145257D01*
X130726642Y-70002400D01*
X130583785Y-69930971D01*
X130512357Y-69930971D01*
X130369500Y-70002400D01*
X130298071Y-70145257D01*
X130298071Y-70359542D01*
X130369500Y-70502400D01*
X131226642Y-71145257D02*
X131298071Y-71288114D01*
X131298071Y-71573828D01*
X131226642Y-71716685D01*
X131083785Y-71788114D01*
X131012357Y-71788114D01*
X130869500Y-71716685D01*
X130798071Y-71573828D01*
X130798071Y-71359542D01*
X130726642Y-71216685D01*
X130583785Y-71145257D01*
X130512357Y-71145257D01*
X130369500Y-71216685D01*
X130298071Y-71359542D01*
X130298071Y-71573828D01*
X130369500Y-71716685D01*
X131298071Y-72645257D02*
X131226642Y-72502400D01*
X131083785Y-72430971D01*
X129798071Y-72430971D01*
X131298071Y-73430971D02*
X131226642Y-73288114D01*
X131155214Y-73216685D01*
X131012357Y-73145257D01*
X130583785Y-73145257D01*
X130440928Y-73216685D01*
X130369500Y-73288114D01*
X130298071Y-73430971D01*
X130298071Y-73645257D01*
X130369500Y-73788114D01*
X130440928Y-73859542D01*
X130583785Y-73930971D01*
X131012357Y-73930971D01*
X131155214Y-73859542D01*
X131226642Y-73788114D01*
X131298071Y-73645257D01*
X131298071Y-73430971D01*
X131226642Y-74502400D02*
X131298071Y-74645257D01*
X131298071Y-74930971D01*
X131226642Y-75073828D01*
X131083785Y-75145257D01*
X131012357Y-75145257D01*
X130869500Y-75073828D01*
X130798071Y-74930971D01*
X130798071Y-74716685D01*
X130726642Y-74573828D01*
X130583785Y-74502400D01*
X130512357Y-74502400D01*
X130369500Y-74573828D01*
X130298071Y-74716685D01*
X130298071Y-74930971D01*
X130369500Y-75073828D01*
X131226642Y-76359542D02*
X131298071Y-76216685D01*
X131298071Y-75930971D01*
X131226642Y-75788114D01*
X131083785Y-75716685D01*
X130512357Y-75716685D01*
X130369500Y-75788114D01*
X130298071Y-75930971D01*
X130298071Y-76216685D01*
X130369500Y-76359542D01*
X130512357Y-76430971D01*
X130655214Y-76430971D01*
X130798071Y-75716685D01*
X131298071Y-77073828D02*
X130298071Y-77073828D01*
X130583785Y-77073828D02*
X130440928Y-77145257D01*
X130369500Y-77216685D01*
X130298071Y-77359542D01*
X130298071Y-77502400D01*
M02*
