G04 #@! TF.GenerationSoftware,KiCad,Pcbnew,5.0.2+dfsg1-1~bpo9+1*
G04 #@! TF.CreationDate,2020-11-29T19:27:56+00:00*
G04 #@! TF.ProjectId,tiny_glowstick,74696e79-5f67-46c6-9f77-737469636b2e,rev?*
G04 #@! TF.SameCoordinates,Original*
G04 #@! TF.FileFunction,Legend,Top*
G04 #@! TF.FilePolarity,Positive*
%FSLAX46Y46*%
G04 Gerber Fmt 4.6, Leading zero omitted, Abs format (unit mm)*
G04 Created by KiCad (PCBNEW 5.0.2+dfsg1-1~bpo9+1) date Sun 29 Nov 2020 19:27:56 GMT*
%MOMM*%
%LPD*%
G01*
G04 APERTURE LIST*
%ADD10C,0.150000*%
G04 APERTURE END LIST*
D10*
G04 #@! TO.C,U1*
X131882700Y-70016000D02*
X131882700Y-70221000D01*
X137382700Y-70016000D02*
X137382700Y-70316000D01*
X137382700Y-75526000D02*
X137382700Y-75226000D01*
X131882700Y-75526000D02*
X131882700Y-75226000D01*
X131882700Y-70016000D02*
X137382700Y-70016000D01*
X131882700Y-75526000D02*
X137382700Y-75526000D01*
X131882700Y-70221000D02*
X130132700Y-70221000D01*
G04 #@! TO.C,J1*
X143225520Y-81912460D02*
X143225520Y-98295460D01*
X130520440Y-81907380D02*
X130520440Y-98290380D01*
X143225520Y-98300540D02*
X130525520Y-98300540D01*
X130520440Y-78590140D02*
X132349240Y-78590140D01*
X141401800Y-78595220D02*
X143230600Y-78595220D01*
X143215360Y-83395820D02*
X130515360Y-83395820D01*
G04 #@! TO.C,SW2*
X138137900Y-68402200D02*
X132041900Y-68402200D01*
X132041900Y-68402200D02*
X132041900Y-65354200D01*
X132041900Y-65354200D02*
X138137900Y-65354200D01*
X138137900Y-65354200D02*
X138137900Y-68402200D01*
X136105900Y-67386200D02*
X134073900Y-67386200D01*
X134073900Y-67386200D02*
X134073900Y-66370200D01*
X134073900Y-66370200D02*
X136105900Y-66370200D01*
X136105900Y-66370200D02*
X136105900Y-67386200D01*
G04 #@! TO.C,SW1*
X140759180Y-76288900D02*
X140764260Y-63482220D01*
X140764260Y-63482220D02*
X140759180Y-63482220D01*
X145163540Y-76288900D02*
X145168620Y-63482220D01*
X145173700Y-70573900D02*
X149075140Y-70573900D01*
X149075140Y-70573900D02*
X149075140Y-69212460D01*
X149075140Y-69212460D02*
X145173700Y-69212460D01*
G04 #@! TO.C,D1*
X136099324Y-57429660D02*
X136099324Y-56429660D01*
X136337420Y-56429660D01*
X136480277Y-56477280D01*
X136575515Y-56572518D01*
X136623134Y-56667756D01*
X136670753Y-56858232D01*
X136670753Y-57001089D01*
X136623134Y-57191565D01*
X136575515Y-57286803D01*
X136480277Y-57382041D01*
X136337420Y-57429660D01*
X136099324Y-57429660D01*
X137623134Y-57429660D02*
X137051705Y-57429660D01*
X137337420Y-57429660D02*
X137337420Y-56429660D01*
X137242181Y-56572518D01*
X137146943Y-56667756D01*
X137051705Y-56715375D01*
X136446307Y-63993068D02*
X137208212Y-63993068D01*
X136827260Y-64374020D02*
X136827260Y-63612116D01*
X133807580Y-64556900D02*
X133807580Y-63556900D01*
X134045675Y-63556900D01*
X134188532Y-63604520D01*
X134283770Y-63699758D01*
X134331389Y-63794996D01*
X134379008Y-63985472D01*
X134379008Y-64128329D01*
X134331389Y-64318805D01*
X134283770Y-64414043D01*
X134188532Y-64509281D01*
X134045675Y-64556900D01*
X133807580Y-64556900D01*
X134807580Y-64556900D02*
X134807580Y-63556900D01*
X139016787Y-63947348D02*
X139778692Y-63947348D01*
G04 #@! TD*
M02*
